<?xml version="1.0" encoding="utf-8"?>
<svg version="1.1" id="Layer_1" xmlns="http://www.w3.org/2000/svg" xmlns:xlink="http://www.w3.org/1999/xlink" x="0px" y="0px"
	 viewBox="893.5165 -167.2775 754.3395 1742.5826" enable-background="new 893.5165 -167.2775 754.3395 1742.5826"
	 xml:space="preserve">
<path d="M1571.4586,258.6826c-1.6387-25.6716-2.802-51.3586-8.0555-76.653c-2.4717-11.901-9.474-19.4816-20.7416-23.4042
	c-3.8857-1.3529-7.7511-2.9102-11.757-3.7438c-9.9165-2.0644-16.5776-7.7882-20.3995-17.0188
	c-4.4462-10.7374-11.4734-19.4456-20.7699-26.3375c-8.4199-6.2426-13.5553-14.3355-14.7872-24.8834
	c-0.4751-4.07-1.2463-8.1528-2.3684-12.0916c-3.524-12.3659-10.9839-16.0138-22.5491-10.4998
	c-7.0918,3.3811-13.8082,7.6183-20.4497,11.8527c-5.1537,3.2859-8.173,2.1217-10.0642-3.4531
	c-2.8888-8.5152-4.6458-17.257-4.6448-26.237c0.0015-15.4595-0.8859-30.8444-2.5906-46.2105
	c-3.3517-30.213-17.964-53.7978-42.8949-70.5212c-19.3052-12.9494-41.1113-20.2178-64.0812-23.9886
	c-31.3541-5.1473-57.443,2.8317-77.4457,28.8275c-11.2908,14.6737-23.381,28.7588-33.9141,44.0012
	c-3.4508,4.9934-6.5592,6.7935-12.6548,4.8513c-10.116-3.2231-20.6125-5.2295-30.8168-8.2011
	c-25.6871-7.4801-48.0317-2.3853-67.1143,16.7217c-3.6705,3.6754-6.6917,7.7748-10.0017,11.6929
	c-5.2623,6.2291-11.1354,6.8103-17.6438,2.065c-7.3467-5.3569-16.2546-0.5022-24.1229-3.6535
	c-2.1025-0.842-3.803,3.4471-5.2811,5.7038c-3.7525,5.7291-7.0712,11.7739-11.1714,17.2362
	c-5.9362,7.9085-9.7129,16.4327-10.4263,26.3766c-0.8099,11.2871-2.4426,22.5324-2.8491,33.8273
	c-0.8069,22.4076-9.1729,44.5006-2.7007,67.2741c0.7362,2.5912-0.8861,6.0145-1.8585,8.9026
	c-6.0166,17.8706-12.2279,35.6758-18.2066,53.5587c-1.2939,3.8696-3.9012,9.0106-2.4619,11.7726
	c4.9293,9.4597-0.3552,17.1691-2.4541,25.4684c-1.6813,6.6481-4.0327,13.1673-5.1936,19.8977
	c-2.0906,12.1214,5.9166,23.6003,16.694,24.903c-0.6242,7.1678-1.6163,14.3268-1.7458,21.5016
	c-0.0895,4.9598-3.7004,12.8582,3.723,13.8449c6.5133,0.8658,5.5925-7.4801,6.6798-11.9815
	c4.1384-17.1359,12.2309-32.2749,22.1516-46.8122c-3.7659,16.487-4.6021,33.1716-6.3792,49.74
	c-4.7939,44.6999,2.5391,85.769,36.7308,118.1601c18.1151,17.1612,31.8171,37.6733,46.3671,57.5984
	c8.4991,11.6387,16.684,23.6313,28.9768,31.739c9.3531,6.1684,13.4487,14.9717,14.9736,25.7186
	c2.8138,19.8321,2.3987,39.6948,1.1626,59.566c-1.5151,24.3579-10.0283,45.9855-25.6156,64.9066
	c-5.6576,6.8678-10.6884,14.2794-15.6837,21.6603c-14.3237,21.1639-19.4652,44.1931-14.5198,69.5413
	c3.699,18.9602,9.9932,37.1085,16.6849,55.0682c10.7975,28.9798,10.885,57.7365,0.0857,86.4669
	c-12.6727,33.7144-16.1987,68.4695-14.1086,104.2068c1.793,30.6528-3.0923,60.3239-17.5911,87.7335
	c-13.3651,25.266-23.1875,51.9003-32.9165,78.6821c-16.6025,45.7029-25.7423,92.3596-22.2366,141.2046
	c2.7976,38.9838,5.1388,78.0026,7.3723,117.0237c1.1774,20.5697,4.1933,41.0844,3.4441,61.7266h109.7247
	c-1.3167-3.2748-2.0553-6.9326-2.1475-11.0164c-0.6375-28.2411,0.7603-56.6094,8.5602-83.6255
	c13.0005-45.0281,18.3059-91.4269,27.5782-137.0991c8.8727-43.7052,17.3892-87.4681,33.8503-129.1658
	c1.8859-4.7781,3.9382-9.4939,6.0375-14.1829c2.0365-4.5477,3.8164-9.8466,1.0098-13.8478
	c-7.479-10.6611-2.641-19.291,3.0114-28.2151c22.8459-36.0696,40.6565-74.6196,56.3656-114.2208
	c1.4159-3.5686,1.3484-8.1226,5.7109-10.6976c2.3989,3.0742,1.6753,6.582,1.9762,9.7963c0.5374,5.7401-1.811,12.8997,8.2618,12.9726
	c2.5892,0.0187,3.243,4.0941,4.3719,6.5442c13.0803,28.3832,27.2465,57.1504,32.2633,87.6051
	c6.8075,41.3247,26.6077,78.2958,33.9336,119.2368c5.6257,31.4396,11.6794,62.5447,11.4148,94.7026
	c-0.2936,35.698,2.8081,71.2562,7.5061,106.6536c0.5854,4.4111,0.3926,8.1472-2.146,12.5463
	c-4.1226,7.144-2.7931,16.0098-4.485,24.0343c-0.9747,4.6227-1.8401,9.2694-2.6665,13.9235h0.4686v54.0555h113.575
	c-1.4724-5.2013-1.6456-11.6926-0.8125-20.0214c2.0131-20.1237,4.158-40.255,7.0541-60.2656
	c7.4164-51.2384,15.3143-102.4072,22.9589-153.6127c4.402-29.4878,5.2543-58.8378-5.2902-87.3745
	c-9.79-26.4946-15.4392-54.0048-21.462-81.4951c-7.3679-33.6331-8.7074-67.1594-2.8671-101.1295
	c5.7561-33.4788,12.5944-66.724,20.1572-99.8243c10.3138-45.1401,20.5763-90.3004,34.5685-134.4971
	c1.6501-5.212,2.7872-10.9921,9.2156-12.591c10.8367-2.6949,13.469-10.2252,12.8513-20.2706
	c-1.1787-19.1675-1.7179-38.3776-3.1017-57.5286c-4.4777-61.9623,3.9135-123.2928,8.7557-184.7948
	C1565.5188,413.4063,1576.423,336.4691,1571.4586,258.6826z M986.0176,286.0729c-3.012-22.4301,10.4764-40.4843,16.5217-60.6326
	C999.4002,246.2108,988.2532,264.8589,986.0176,286.0729z M1043.7622,44.6459c-0.8785-0.0128-1.124-0.4644-0.5985-1.0778
	c0.1473-0.1721,0.6328-0.19,0.8905-0.0907c0.2146,0.0826,0.3234,0.4404,0.4791,0.6764
	C1044.2761,44.3269,1044.017,44.6497,1043.7622,44.6459z M1059.3094,144.1356c-1.3995-10.6469-2.7992-21.294-4.1986-31.9407
	C1062.7693,122.0027,1066.6958,132.3681,1059.3094,144.1356z M1143.088,213.572c-1.5768,0.3264-3.9027,0.4299-3.9491-1.7811
	c-0.0284-1.3467,1.2972-3.284,2.5577-3.9985c5.645-3.2007,10.246-0.6851,15.6666,3.5787
	C1151.8585,214.3525,1147.3142,212.6972,1143.088,213.572z M1272.0505,289.8228c-0.549,1.6104-1.3962,3.1279-2.1888,4.6458
	c-8.0695,15.4523-18.0748,30.4232-11.3484,49.9127c-14.4042-14.4294-30.5918-25.2904-44.6339-38.6311
	c-3.7379-3.5511-1.9426-4.8863,1.7692-6.2207c16.7615-6.0262,33.3613-12.5407,50.7347-16.6944
	c2.2118-0.5286,4.7679-2.1085,6.6619,0.3058C1274.8676,285.4645,1272.7858,287.6649,1272.0505,289.8228z M1301.1144,192.6705
	c-0.7152,1.2309-2.8434,2.2052-4.3826,2.3076c-20.9921,1.3949-40.2487,13.2192-62.4398,9.073
	c-8.5023-1.5886-17.9963,2.1317-28.8018,3.6865c2.9124-5.9819,4.4004-11.4636,7.7578-15.3181
	c4.172-4.7902,6.437-9.416,5.4838-15.7216c-0.7273-4.8117,1.5479-5.5168,6.1001-4.8965c19.068,2.5983,22.6881-2.107,16.0277-20.6071
	c-2.2152-6.1529-4.3512-12.305-5.3346-18.7547c-0.6569-4.3096-1.5742-8.9198,3.3577-12.9015
	c1.8073,10.0155,7.8998,11.868,16.6266,9.7033c4.5688-1.1331,16.6042,8.0714,17.8384,13.3977
	c0.7367,3.1799,1.2017,6.2317,4.7656,7.1372c4.1802,1.0624,4.5885,3.9804,5.2118,7.6594
	c2.3728,14.0105,6.701,16.5913,20.6309,12.7733c5.5062-1.5092,10.8993-3.4301,17.0262-4.363
	C1314.1588,174.8329,1306.6971,183.061,1301.1144,192.6705z"/>
</svg>
